<svg xmlns="http://www.w3.org/2000/svg" id="Layer_1" viewBox="0 0 171.1 21">
  <style>
    .st0{fill:#55575A;}
  </style>
  <path d="M109.7 17.1c-3.8 0-5.7-2.3-6.3-4.9h-3.7c.7 4.4 3.8 8.2 10 8.2 6.1 0 9.3-3.9 10-8.2H116C115.4 14.8 113.5 17.1 109.7 17.1M138.8 17.1c-4.3 0-6.4-2.2-7-4.7h-4c.7 4.4 4.1 8.2 11 8.2 3 0 5.8-.9 7.9-2.8l-2.7-2.5C142.7 16.3 140.6 17.1 138.8 17.1M13.9 10.1c1.9-.8 2.6-2.3 2.6-3.9 0-4-3-5.8-6.9-5.8H0v20h9.6c4.2 0 7.5-1.4 7.5-5.9C17.1 13.3 16.2 10.8 13.9 10.1zM3.8 3.8h5.8c2.4 0 3.2 1.6 3.2 2.5 0 1.1-.8 2.2-3.2 2.2H3.8V3.8zM9.6 16.9H3.8v-5.2h5.8c1.6 0 3.8.9 3.8 2.8C13.3 16.4 11.1 16.9 9.6 16.9zM25.5 20.5L40.5 20.5 40.5 16.7 29.2 16.7 29.2 12.2 40.1 12.2 40.1 8.7 29.2 8.7 29.2 4 40.5 4 40.5.5 25.5.5zM56.8.5h-7.9v20h7.9c7 0 10.1-5.1 10.1-10.2C66.8 5.3 63.7.5 56.8.5zM56.8 16.8h-4.1V3.9h4.1c4.4 0 6.2 3.1 6.3 6.3C63.2 13.5 61.4 16.8 56.8 16.8zM92 7.1c0-3.5-2.5-6.6-7.2-6.7-3.2 0-6.4 0-9.6 0v20H79v-6.7h3.6l5.9 6.7H93v-.3l-6.1-6.9C90.7 12.7 92 9.9 92 7.1zM79 10.4V4h5.8c2.4 0 3.4 1.6 3.4 3.2s-1 3.2-3.4 3.2H79zM109.7.5c-6 0-9.3 3.9-10 8.3h3.7c.6-2.7 2.5-5.1 6.3-5.1 3.7 0 5.7 2.4 6.3 5.1h3.7C119 4.4 115.7.5 109.7.5zM127.8 8.7h4c.6-2.6 2.9-4.8 7-4.8 1.9 0 3.7.6 5.1 1.8l2.6-2.3c-2.2-1.9-4.9-2.9-7.7-2.9C132.1.5 128.6 4.4 127.8 8.7zM161.4 10.1L170.4.6 170.4.5 165.6.5 158 8.9 158 .5 154.2.5 154.2 20.5 158 20.5 158 11.6 166.4 20.5 171.1 20.5 171.1 20.2z" class="st0"/>
</svg>
